<?xml version="1.0" encoding="UTF-8" standalone="no"?>
<!DOCTYPE svg PUBLIC "-//W3C//DTD SVG 1.1//EN" "http://www.w3.org/Graphics/SVG/1.1/DTD/svg11.dtd">
<svg width="100%" height="100%" viewBox="0 0 512 512" version="1.1" xmlns="http://www.w3.org/2000/svg" xmlns:xlink="http://www.w3.org/1999/xlink" xml:space="preserve" xmlns:serif="http://www.serif.com/" style="fill-rule:evenodd;clip-rule:evenodd;stroke-linejoin:round;stroke-miterlimit:2;">
    <g transform="matrix(1,0,0,1,-64,-64)">
        <g transform="matrix(1,0,0,1,64,64)">
            <circle cx="256" cy="256" r="256" style="fill:none;"/>
        </g>
    </g>
    <g transform="matrix(1,0,0,1,-64,-64)">
        <g id="Laag_1-2" transform="matrix(0.862826,0,0,0.862826,111.092565,178.065075)">
            <path d="M484.24,163.28C484.213,184.088 467.098,201.203 446.29,201.23L37.9,201.23C17.139,201.23 0.044,184.171 0,163.41L-0,163.21C-0,142.452 17.062,125.363 37.82,125.33L446.49,125.33C467.235,125.434 484.246,142.535 484.24,163.28Z" style="fill:rgb(181,179,182);fill-rule:nonzero;"/>
            <path d="M142.08,129.425L142.08,198.925C142.08,221.639 123.639,240.08 100.925,240.08L83.135,240.08C60.421,240.08 41.98,221.639 41.98,198.925L41.98,129.425C41.98,106.711 60.421,88.27 83.135,88.27L100.925,88.27C123.639,88.27 142.08,106.711 142.08,129.425Z" style="fill:rgb(104,92,100);"/>
            <path d="M442.39,129.425L442.39,198.925C442.39,221.639 423.949,240.08 401.235,240.08L383.445,240.08C360.731,240.08 342.29,221.639 342.29,198.925L342.29,129.425C342.29,106.711 360.731,88.27 383.445,88.27L401.235,88.27C423.949,88.27 442.39,106.711 442.39,129.425Z" style="fill:rgb(104,92,100);"/>
            <path d="M413.51,164.5C413.51,255.35 337.74,329 244.19,329C150.64,329 74.86,255.35 74.86,164.5C74.86,73.65 150.7,0 244.19,0C337.68,0 413.51,73.65 413.51,164.5Z" style="fill:rgb(136,131,141);fill-rule:nonzero;"/>
            <path d="M363.6,162.38C363.6,228.759 308.979,283.38 242.6,283.38C176.221,283.38 121.6,228.759 121.6,162.38C121.6,96.001 176.221,41.38 242.6,41.38C308.979,41.38 363.6,96.001 363.6,162.38Z" style="fill:rgb(255,214,86);fill-rule:nonzero;"/>
            <path d="M339.73,162.38C339.739,162.912 339.743,163.444 339.743,163.977C339.743,217.261 295.897,261.107 242.613,261.107C189.329,261.107 145.483,217.261 145.483,163.977C145.483,111.302 188.332,67.735 241,66.86L242.57,66.86C295.417,66.425 339.263,109.553 339.7,162.4L339.73,162.38Z" style="fill:rgb(104,92,100);fill-rule:nonzero;"/>
            <path d="M191.36,143.34C197.601,128.407 209.487,116.521 224.42,110.28C235.72,105.46 225.94,88.99 214.77,93.82C197.005,101.538 182.818,115.725 175.1,133.49C170.27,144.66 186.73,154.38 191.56,143.14L191.36,143.34Z" style="fill:rgb(200,215,249);fill-rule:nonzero;"/>
            <path d="M192.35,186.91C190.146,181.627 188.682,176.064 188,170.38C187.894,165.162 183.629,160.9 178.41,160.8C173.177,160.833 168.89,165.147 168.89,170.38C169.558,177.782 171.24,185.057 173.89,192C175.411,196.958 180.622,199.892 185.65,198.62C190.677,197.183 193.653,191.892 192.27,186.85L192.35,186.91Z" style="fill:rgb(200,215,249);fill-rule:nonzero;"/>
        </g>
    </g>
</svg>
